<svg width="128" height="39" viewBox="0 0 128 39" fill="none" xmlns="http://www.w3.org/2000/svg">
<path d="M23.48 4.09V9.175H15.11V35.5H8.81V9.175H0.44V4.09H23.48ZM62.3217 4.09V35.5H56.0217V15.07L47.6067 35.5H42.8367L34.3767 15.07V35.5H28.0767V4.09H35.2317L45.2217 27.445L55.2117 4.09H62.3217ZM86.3703 19.39C88.1403 19.72 89.5953 20.605 90.7353 22.045C91.8753 23.485 92.4453 25.135 92.4453 26.995C92.4453 28.675 92.0253 30.16 91.1853 31.45C90.3753 32.71 89.1903 33.7 87.6303 34.42C86.0703 35.14 84.2253 35.5 82.0953 35.5H68.5503V4.09H81.5103C83.6403 4.09 85.4703 4.435 87.0003 5.125C88.5603 5.815 89.7303 6.775 90.5103 8.005C91.3203 9.235 91.7253 10.63 91.7253 12.19C91.7253 14.02 91.2303 15.55 90.2403 16.78C89.2803 18.01 87.9903 18.88 86.3703 19.39ZM74.8503 17.05H80.6103C82.1103 17.05 83.2653 16.72 84.0753 16.06C84.8853 15.37 85.2903 14.395 85.2903 13.135C85.2903 11.875 84.8853 10.9 84.0753 10.21C83.2653 9.52 82.1103 9.175 80.6103 9.175H74.8503V17.05ZM81.1953 30.37C82.7253 30.37 83.9103 30.01 84.7503 29.29C85.6203 28.57 86.0553 27.55 86.0553 26.23C86.0553 24.88 85.6053 23.83 84.7053 23.08C83.8053 22.3 82.5903 21.91 81.0603 21.91H74.8503V30.37H81.1953ZM95.9363 19.75C95.9363 16.66 96.6263 13.9 98.0063 11.47C99.4163 9.01 101.321 7.105 103.721 5.755C106.151 4.375 108.866 3.685 111.866 3.685C115.376 3.685 118.451 4.585 121.091 6.385C123.731 8.185 125.576 10.675 126.626 13.855H119.381C118.661 12.355 117.641 11.23 116.321 10.48C115.031 9.73 113.531 9.355 111.821 9.355C109.991 9.355 108.356 9.79 106.916 10.66C105.506 11.5 104.396 12.7 103.586 14.26C102.806 15.82 102.416 17.65 102.416 19.75C102.416 21.82 102.806 23.65 103.586 25.24C104.396 26.8 105.506 28.015 106.916 28.885C108.356 29.725 109.991 30.145 111.821 30.145C113.531 30.145 115.031 29.77 116.321 29.02C117.641 28.24 118.661 27.1 119.381 25.6H126.626C125.576 28.81 123.731 31.315 121.091 33.115C118.481 34.885 115.406 35.77 111.866 35.77C108.866 35.77 106.151 35.095 103.721 33.745C101.321 32.365 99.4163 30.46 98.0063 28.03C96.6263 25.6 95.9363 22.84 95.9363 19.75Z" fill="black"/>
</svg>
